<?xml version="1.0" ?><!-- Uploaded to: SVGRepo, www.svgrepo.com, Transformed by: SVGRepo Tools -->
<svg fill="#000000" width="800px" height="800px" viewBox="0 0 512 512" id="icon" xmlns="http://www.w3.org/2000/svg"><title/><path d="M148.7,385.23a5.58,5.58,0,0,0-5.58,5.59v58.8a3.44,3.44,0,0,1-2.35,3.38,3.65,3.65,0,0,1-4.16-1.14,60.33,60.33,0,0,1,.47-77.91,5.58,5.58,0,1,0-8.48-7.27A71.5,71.5,0,0,0,128,459a14.77,14.77,0,0,0,16.54,4.47,14.61,14.61,0,0,0,9.71-13.88v-58.8A5.59,5.59,0,0,0,148.7,385.23Z"/><path d="M346,373.54a5.58,5.58,0,0,0-1.76,7.7,60.29,60.29,0,0,1-7.84,73.88,2.8,2.8,0,0,1-3.17.66,2.87,2.87,0,0,1-1.86-2.74V374.65a3.23,3.23,0,0,1,1.22-2.65,5.59,5.59,0,0,0-7-8.69,14.5,14.5,0,0,0-5.36,11.34V453a14.1,14.1,0,0,0,24.22,9.85,71.43,71.43,0,0,0,9.28-87.58A5.58,5.58,0,0,0,346,373.54Z"/><path d="M293.23,362.08a5.59,5.59,0,0,0-5.59,5.58V459a14.53,14.53,0,0,1-14.51,14.51h-.58A14.53,14.53,0,0,1,258,459V367.66a14.82,14.82,0,0,1,14.81-14.8,5.59,5.59,0,1,0,0-11.18,26,26,0,0,0-26,26V459a25.71,25.71,0,0,0,25.69,25.68h.58A25.71,25.71,0,0,0,298.82,459V367.66A5.58,5.58,0,0,0,293.23,362.08Z"/><path d="M221,362.11a5.59,5.59,0,0,0-5.59,5.59V459a14.51,14.51,0,0,1-14.51,14.51h-.63A14.51,14.51,0,0,1,185.77,459v-8.2a5.59,5.59,0,0,0-11.17,0V459a25.7,25.7,0,0,0,25.63,25.66h.64A25.67,25.67,0,0,0,226.55,459V367.7A5.58,5.58,0,0,0,221,362.11Z"/><path d="M174.6,425.89a5.59,5.59,0,1,0,11.17,0v-1.25a5.59,5.59,0,1,0-11.17,0Z"/><path d="M180.18,407.63a5.58,5.58,0,0,0,5.59-5.58V367.7a14.83,14.83,0,0,1,14.78-14.81,5.59,5.59,0,1,0,0-11.17h0a26,26,0,0,0-25.93,26v34.35A5.58,5.58,0,0,0,180.18,407.63Z"/><path d="M342.74,286V199.05c0-32.52-27.92-59-62.24-59-24.83,0-46-16.6-50.27-39.48-.9-4.78-1.86-9.62-2.86-14.39a5.59,5.59,0,0,0-10.94,2.29c1,4.69,1.93,9.46,2.82,14.16,5.28,28.16,31.05,48.59,61.25,48.59,28.16,0,51.06,21.44,51.06,47.8v52H310.48a5.59,5.59,0,1,0,0,11.17h21.08V286c0,11.29-9.9,20.48-22.07,20.48h-.41a2.43,2.43,0,0,1-2.31-1.65,24.06,24.06,0,0,0-43.51-2.86,8.5,8.5,0,0,1-7.57,4.51h-9.21a8.47,8.47,0,0,1-7.56-4.51,24.13,24.13,0,0,0-42.27,0,8.48,8.48,0,0,1-7.57,4.5h-9.2a8.47,8.47,0,0,1-7.57-4.51,24.13,24.13,0,0,0-42.27,0,8.48,8.48,0,0,1-7.56,4.5c-12.18,0-22.08-9.19-22.08-20.48v-7.31a5.59,5.59,0,1,0-11.17,0V286c0,17.45,14.91,31.65,33.25,31.65a19.6,19.6,0,0,0,17.46-10.5,13,13,0,0,1,22.47,0,19.6,19.6,0,0,0,17.47,10.5h9.2a19.61,19.61,0,0,0,17.47-10.5,13,13,0,0,1,22.47,0,19.6,19.6,0,0,0,17.46,10.5h9.21a19.61,19.61,0,0,0,17.47-10.5,12.66,12.66,0,0,1,11.23-6.49,12.37,12.37,0,0,1,11.85,7.89,13.63,13.63,0,0,0,12.84,9.1h.41C327.82,317.61,342.74,303.41,342.74,286Z"/><path d="M222,62.84c0-.17,0-.34-.07-.52s0-.15,0-.23c-2.58-10.49-5.38-20.84-8.34-30.77a5.58,5.58,0,1,0-10.7,3.19c2.53,8.5,4.94,17.34,7.19,26.3a224.76,224.76,0,0,1-85,30.4,5.59,5.59,0,0,0,.79,11.12,5.49,5.49,0,0,0,.8-.06,235.77,235.77,0,0,0,92.81-34.12l.14-.11c.19-.13.36-.27.53-.41l.33-.31a3.67,3.67,0,0,0,.4-.47,3.27,3.27,0,0,0,.28-.37,4.68,4.68,0,0,0,.3-.54c.07-.13.14-.26.2-.4a6.21,6.21,0,0,0,.2-.61c0-.14.08-.27.1-.41a4.52,4.52,0,0,0,.08-.63,3.4,3.4,0,0,0,0-.45C222,63.24,222,63,222,62.84Z"/><path d="M278.79,262.24a5.59,5.59,0,1,0,0-11.17h-2a5.59,5.59,0,0,0,0,11.17Z"/><path d="M59.53,99.4a5.63,5.63,0,0,0,.34.89A456.88,456.88,0,0,1,85.6,201.69a.75.75,0,0,0,0,.15c0,.1,0,.19.05.29a419.56,419.56,0,0,1,3.58,54.52,5.59,5.59,0,0,0,5.59,5.59H247.87a5.59,5.59,0,0,0,0-11.17H100.36a432.71,432.71,0,0,0-2.89-44.42A55.9,55.9,0,0,1,147,237.33a5.58,5.58,0,0,0,5,3,5.48,5.48,0,0,0,2.53-.61,5.57,5.57,0,0,0,2.44-7.51,67.06,67.06,0,0,0-60-36.8l-.93,0a466.37,466.37,0,0,0-22.81-91.26c5.81.39,11.65.6,17.45.6,1.42,0,2.83,0,4.24,0a5.59,5.59,0,0,0-.09-11.17h-.1a252.92,252.92,0,0,1-25.79-.94A543.3,543.3,0,0,0,40.14,30.27a5.59,5.59,0,0,0-9.84,5.29A532.1,532.1,0,0,1,59.53,99.4Z"/><path d="M333.31,63a5.59,5.59,0,1,0,8.58,7.16,46.42,46.42,0,0,1,80.48,41.63,5.59,5.59,0,0,0,4,6.83,5.92,5.92,0,0,0,1.44.18,5.58,5.58,0,0,0,5.39-4.15A57.59,57.59,0,0,0,333.31,63Z"/><path d="M461.27,116.35a5.59,5.59,0,1,0-7.26,8.49c13.1,11.2,16.66,17.51,17.11,19.6-2.32.91-11.31,1.25-32.55-5.83-19.61-6.54-43.85-17.44-68.25-30.69s-46.73-27.64-62.9-40.53c-17.51-14-22.12-21.69-22.62-24.13,2.14-.83,10.16-1.23,28.79,4.61a5.59,5.59,0,0,0,3.35-10.66c-24.37-7.64-37.75-7.45-42.13.62s2.84,19.58,22.84,36c6.65,5.47,14.41,11.2,23,17a57.62,57.62,0,0,0,95,52.25,6.34,6.34,0,0,0,.79-.86c7.82,3.17,15.24,5.88,22.09,8,12.12,3.84,21.55,5.76,28.54,5.75,7.25,0,11.87-2.06,14.12-6.2C485.31,142.15,479,131.5,461.27,116.35ZM355.35,140.71a46.19,46.19,0,0,1-24.21-42.9c10.48,6.71,21.89,13.44,33.85,19.93,13.63,7.4,27.13,14,39.87,19.66A46.58,46.58,0,0,1,355.35,140.71Z"/></svg>