<?xml version="1.0" ?><svg width="512px" height="512px" viewBox="0 0 512 512" id="icon" xmlns="http://www.w3.org/2000/svg"><title/><path d="M479,205.09a4.24,4.24,0,0,0-.1-.46,228.14,228.14,0,0,0-48.29-96.17,5.63,5.63,0,0,0-1.22-1.44A228.24,228.24,0,0,0,256,27.33l-1.71,0h-.92l-.22,0A228.32,228.32,0,0,0,193.49,36a5.59,5.59,0,0,0,3,10.75,217.52,217.52,0,0,1,53.12-8.12l5.6,14.18a.77.77,0,0,0,.07.16,105.67,105.67,0,0,0,97.13,63.91,5.59,5.59,0,1,0,0-11.17,94.52,94.52,0,0,1-86.84-57.08l-4-10a217,217,0,0,1,151.4,67.12H389.11a5.59,5.59,0,1,0,0,11.17H423a217.2,217.2,0,0,1,43.25,83.57H420.08A40.89,40.89,0,0,0,382,226.12a29.75,29.75,0,0,1-27.71,18.7h-10.1a64,64,0,0,0-62.58,77.75,64.44,64.44,0,0,0,62.58,50.35h38.2a5.59,5.59,0,1,0,0-11.17h-38.2a53.19,53.19,0,0,1-51.66-41.57A52.88,52.88,0,0,1,344.19,256h10.1a40.87,40.87,0,0,0,38.07-25.69,29.77,29.77,0,0,1,27.72-18.7h48.86A217.46,217.46,0,0,1,446,361.75H416a5.59,5.59,0,1,0,0,11.17h23.38A217.53,217.53,0,0,1,256,473.5c-80.14,0-150.28-43.57-188-108.26h47.26a114.91,114.91,0,0,1,79.57,31.83l3.52,3.35a57.89,57.89,0,0,0,40.09,16h19.72a47.13,47.13,0,0,1,40.51,23.2A5.59,5.59,0,0,0,308.3,434a58.34,58.34,0,0,0-50.15-28.73H238.43A46.79,46.79,0,0,1,206,392.33L202.53,389a126,126,0,0,0-87.28-34.91H61.9A217.88,217.88,0,0,1,84.47,122h29.59a29.77,29.77,0,0,1,27.72,18.7,40.9,40.9,0,0,0,38.07,25.69H190a52.88,52.88,0,0,1,45.5,79.83,5.59,5.59,0,0,0,9.62,5.69A64.07,64.07,0,0,0,190,155.19H179.85a29.76,29.76,0,0,1-27.71-18.69,40.88,40.88,0,0,0-38.08-25.69H93.86a220.24,220.24,0,0,1,49.71-41,5.59,5.59,0,0,0-5.78-9.56A228.53,228.53,0,0,0,27.33,256,227.21,227.21,0,0,0,53.19,361.54a5.35,5.35,0,0,0,.74,1.4C92.37,435.29,168.52,484.67,256,484.67c84.26,0,158-45.81,197.68-113.84a5.29,5.29,0,0,0,.88-1.51A228.63,228.63,0,0,0,479,205.09Z"/><path d="M58.42,272.13a5.59,5.59,0,0,0,0,11.17H190a5.59,5.59,0,0,0,0-11.17Z"/></svg>