<?xml version="1.0" ?><svg width="512px" height="512px" viewBox="0 0 512 512" id="icon" xmlns="http://www.w3.org/2000/svg"><title/><path d="M159.67,111.63a5.58,5.58,0,0,0,1.73,10.89,5.48,5.48,0,0,0,1.73-.27A64,64,0,0,0,205,44.38a218.79,218.79,0,0,1,129,9.08A67.79,67.79,0,0,0,318.35,97a68.49,68.49,0,0,0,54.52,66.89A6.27,6.27,0,0,0,374,164a5.59,5.59,0,0,0,1.11-11.06A57.26,57.26,0,0,1,329.53,97a56.69,56.69,0,0,1,14.4-37.9c.46.42.92.84,1.36,1.3a411.5,411.5,0,0,0,83.19,68.08,25,25,0,0,1,3.24,2.42,57.46,57.46,0,0,1-10.55,10.41,5.59,5.59,0,0,0,6.74,8.91,68.94,68.94,0,0,0,10.95-10.37,214.67,214.67,0,0,1,31.83,87.68,28.3,28.3,0,0,1,.23,4.33,74,74,0,0,0-30.39,24.52,5.58,5.58,0,1,0,9.05,6.54,63,63,0,0,1,18.22-16.84,365.15,365.15,0,0,0-15.57,90.86,62.24,62.24,0,0,1-12-23.76,5.59,5.59,0,0,0-10.82,2.8,73.75,73.75,0,0,0,21.07,35.41,27.43,27.43,0,0,1-1.33,3.11,219.33,219.33,0,0,1-100.42,98.08,5.59,5.59,0,0,0,4.82,10.08A230.56,230.56,0,0,0,459.1,359.56a38,38,0,0,0,4.08-16.06,354.32,354.32,0,0,1,16.9-99.29,41.61,41.61,0,0,0,1.69-18.14,225.91,225.91,0,0,0-35.69-95.66A38.44,38.44,0,0,0,434.37,119a400.68,400.68,0,0,1-80.94-66.23,34.83,34.83,0,0,0-12.3-8.51,229.31,229.31,0,0,0-180.39,3.48,5.59,5.59,0,0,0,4.61,10.18,216.69,216.69,0,0,1,28.89-10.68,52.9,52.9,0,0,1-34.57,64.41Z"/><path d="M203.72,292.94a5.57,5.57,0,0,0-6.35-4.69,61.27,61.27,0,0,1-27.05-2A5.59,5.59,0,1,0,167,296.88a71.87,71.87,0,0,0,21.3,3.21A73.84,73.84,0,0,0,199,299.3,5.59,5.59,0,0,0,203.72,292.94Z"/><path d="M126.57,265a5.59,5.59,0,0,0,9.6-5.72,60.63,60.63,0,1,1,96,10.89,5.59,5.59,0,1,0,8.08,7.72A71.79,71.79,0,1,0,126.57,265Z"/><path d="M353.65,318.73a5.59,5.59,0,0,0,7.29-3,28.88,28.88,0,1,0-26.7,17.88,5.59,5.59,0,0,0,0-11.17,17.7,17.7,0,1,1,16.37-11A5.6,5.6,0,0,0,353.65,318.73Z"/><path d="M126.35,344.34a5.59,5.59,0,0,0-7.87.74c-10.33,12.46-2.28,35.61,18.33,52.72,12.37,10.25,26,15.67,37.23,15.66,7.46,0,13.83-2.41,18-7.39,5.33-6.43,6-15.72,1.9-26.17-3.66-9.33-10.85-18.76-20.23-26.55a5.59,5.59,0,1,0-7.13,8.6c7.95,6.6,14,14.42,17,22,2.51,6.4,2.47,11.85-.1,15-5.35,6.44-22.87,4-39.47-9.74s-22.2-30.55-16.86-37A5.59,5.59,0,0,0,126.35,344.34Z"/><path d="M33.19,275.94c0,6.95-.2,14-.6,21a66.93,66.93,0,0,0,2.46,22.21,228.94,228.94,0,0,0,205.56,165.3c.71,0,1.41.07,2.12.07a34,34,0,0,0,12.73-2.46c1.06-.42,2.14-.87,3.25-1.32,13.76-5.65,32.6-13.37,61.58-14.27a5.59,5.59,0,1,0-.35-11.17c-31,1-50.92,9.13-65.46,15.1l-3,1.24a52.93,52.93,0,0,1,67.86-45,5.59,5.59,0,0,0,3.23-10.7,64.08,64.08,0,0,0-82.42,57.25A217.73,217.73,0,0,1,45.79,316.11a55.66,55.66,0,0,1-2-18.51c.4-7.21.61-14.5.61-21.66a388.57,388.57,0,0,0-2.88-47.1,55.91,55.91,0,0,1,.86-18.73,217,217,0,0,1,55.18-104,63.75,63.75,0,0,0,25.92,16.17,5.58,5.58,0,1,0,3.46-10.62A52.83,52.83,0,0,1,105.43,98.2a221.59,221.59,0,0,1,20.3-17,5.59,5.59,0,1,0-6.65-9A228.63,228.63,0,0,0,31.41,207.75a67.5,67.5,0,0,0-1,22.45A376.28,376.28,0,0,1,33.19,275.94Z"/></svg>