<?xml version="1.0" ?><svg width="512px" height="512px" viewBox="0 0 512 512" id="icon" xmlns="http://www.w3.org/2000/svg"><title/><path d="M340.61,340.5a34.42,34.42,0,0,0,9.87-28.73,5.58,5.58,0,1,0-11.08,1.37,23.42,23.42,0,0,1-36.8,22L347.7,290a12.51,12.51,0,0,0,0-17.66,53.44,53.44,0,0,0-75.57,0,53.81,53.81,0,0,0-4.93,5.7L253,263.82l10.63-10.63,5.53,5.53a5.58,5.58,0,1,0,7.9-7.89l-6.63-6.63,5.52-5.51a20,20,0,0,0,0-28.29l-21.13-21.13,18.87-18.87,14.79,14.78a5.59,5.59,0,1,0,7.9-7.9l-52-52,23.48-23.48,20.1,20.1-14.62,14.61a5.59,5.59,0,1,0,7.9,7.9l14.62-14.61,8.18,8.18a5.59,5.59,0,1,0,7.9-7.9L271.71,89.91a5.6,5.6,0,0,0-7.9,0l-31.38,31.38a5.59,5.59,0,0,0,0,7.9l33.31,33.31-18.87,18.87-10.62-10.62,10.42-10.43a5.59,5.59,0,0,0-7.9-7.9l-10.42,10.43-17.3-17.3a18.44,18.44,0,0,0-23.33-2.26L183,138.62a5.58,5.58,0,1,0-7.9,7.89l4.44,4.44-28.87,28.87-4.43-4.44a8.53,8.53,0,0,1,0-12l16.82-16.82a5.58,5.58,0,0,0-7.9-7.89l-16.82,16.81a19.73,19.73,0,0,0,0,27.85l4.68,4.68a18.44,18.44,0,0,0,2.26,23.33l17.3,17.3-18.87,18.87L129,232.67a5.59,5.59,0,0,0-7.9,7.9l52,52.05-38.85,38.85a5.59,5.59,0,0,0,7.9,7.9l42.8-42.8a5.57,5.57,0,0,0,0-7.9l-33.31-33.31,18.88-18.87,4.93,4.93,5.69,5.69-10.42,10.42a5.59,5.59,0,1,0,7.9,7.9L189,255l21.13,21.13a20,20,0,0,0,28.29,0l5.51-5.52L261.31,288a53.53,53.53,0,0,0,10.82,60,12.51,12.51,0,0,0,17.66,0l4.82-4.82a34.62,34.62,0,0,0,46-2.62ZM230.55,268.24a8.85,8.85,0,0,1-12.49,0L193,243.16l-18.52-18.52h0l-21.24-21.24a7.28,7.28,0,0,1,0-10.28l39.67-39.66a7.25,7.25,0,0,1,10.27,0L268,218.3a8.85,8.85,0,0,1,0,12.49ZM281.89,340a1.3,1.3,0,0,1-.93.38A1.32,1.32,0,0,1,280,340a42.26,42.26,0,1,1,59.77-59.77,1.28,1.28,0,0,1,.38.93,1.3,1.3,0,0,1-.38.94Z"/><path d="M93.62,275.9l36.18,36.18a5.59,5.59,0,0,0,7.9-7.9L129.52,296l12.8-12.81a5.59,5.59,0,1,0-7.9-7.9l-12.8,12.81L101.52,268l10.71-10.71a5.59,5.59,0,0,0-7.9-7.9L38,315.71a30.85,30.85,0,0,0,0,43.62l20.28,20.28a30.84,30.84,0,0,0,43.61,0l13.52-13.52a5.57,5.57,0,0,0,0-7.9l-24-24.05,18.43-18.44a5.59,5.59,0,0,0-7.9-7.9L83.48,326.24l-8.18-8.18a5.59,5.59,0,1,0-7.9,7.9l36.17,36.18L94,371.71a19.66,19.66,0,0,1-27.81,0L60,365.52l12.9-12.9a5.59,5.59,0,0,0-7.9-7.9l-12.9,12.9-6.19-6.19a19.69,19.69,0,0,1,0-27.82Z"/><path d="M307.29,158.42a5.59,5.59,0,1,0,7.9,7.9l64.18-64.17a30.89,30.89,0,0,0,0-43.62L359.09,38.25a30.85,30.85,0,0,0-43.62,0l-27,27.05a5.59,5.59,0,0,0,7.9,7.9l27-27.05a19.68,19.68,0,0,1,27.82,0l6.19,6.19-12.9,12.9a5.58,5.58,0,1,0,7.89,7.9l12.91-12.9,6.19,6.19a19.71,19.71,0,0,1,0,27.82l-9.57,9.57L325.72,67.64a5.59,5.59,0,1,0-7.9,7.9L326,83.72l-18.44,18.43a5.59,5.59,0,0,0,0,7.9,5.58,5.58,0,0,0,7.9,0L333.9,91.62,354,111.71Z"/><path d="M373,372.8A78.2,78.2,0,0,0,393.74,336a5.58,5.58,0,1,0-10.85-2.64,67.4,67.4,0,0,1-49.35,49.35,5.58,5.58,0,0,0,1.31,11,5.5,5.5,0,0,0,1.33-.16A78.25,78.25,0,0,0,373,372.8Z"/><path d="M372.62,419.73a5.59,5.59,0,0,0-7.45-2.63,110.32,110.32,0,0,1-24.74,8.37,5.59,5.59,0,0,0,1.15,11.06,5,5,0,0,0,1.15-.13A121.66,121.66,0,0,0,370,427.18,5.59,5.59,0,0,0,372.62,419.73Z"/><path d="M425.67,340.23A110.92,110.92,0,0,1,386.18,404a5.59,5.59,0,0,0,3.48,10,5.53,5.53,0,0,0,3.47-1.21,122.82,122.82,0,0,0,10.45-9.33,121.22,121.22,0,0,0,33-60.85,5.58,5.58,0,0,0-10.93-2.3Z"/><path d="M446.1,426.21a5.59,5.59,0,0,0-8.52-7.23c-2.79,3.29-5.76,6.52-8.82,9.58a156.51,156.51,0,0,1-81,43.15,5.59,5.59,0,0,0,2.14,11,167.74,167.74,0,0,0,86.75-46.22C439.93,433.18,443.11,429.73,446.1,426.21Z"/><path d="M453,397.36c-.46.79-.94,1.58-1.43,2.37a5.59,5.59,0,1,0,9.51,5.86c.52-.84,1-1.69,1.54-2.54a5.59,5.59,0,0,0-9.62-5.69Z"/><path d="M478.5,343a5.58,5.58,0,0,0-6.55,4.42,157.72,157.72,0,0,1-7.7,26.78,5.6,5.6,0,0,0,3.2,7.23,5.67,5.67,0,0,0,2,.37,5.58,5.58,0,0,0,5.21-3.57,168.36,168.36,0,0,0,8.25-28.69A5.57,5.57,0,0,0,478.5,343Z"/></svg>