<?xml version="1.0" ?><svg width="512px" height="512px" viewBox="0 0 512 512" id="icon" xmlns="http://www.w3.org/2000/svg"><title/><path d="M133,314.06l-2.2,2.2a5.59,5.59,0,0,0,7.9,7.91l2.2-2.21a5.59,5.59,0,1,0-7.9-7.9Z"/><path d="M198.76,384.19l3.09-3.09a5.59,5.59,0,1,0-7.9-7.9l-3.09,3.09a5.59,5.59,0,1,0,7.9,7.9Z"/><path d="M80.73,482.33a47.72,47.72,0,0,0,34-14.07l63.47-63.47a5.59,5.59,0,0,0-7.9-7.9l-63.47,63.47a36.85,36.85,0,0,1-52.12-52.12l63.44-63.45a5.59,5.59,0,0,0-7.9-7.9L46.76,400.34a48,48,0,0,0,34,82Z"/><path d="M101.15,240.64a13.62,13.62,0,0,0,3.16-.36c6.82-1.57,24.81-5.09,44.33-3.7a5.59,5.59,0,1,0,.79-11.15,166.51,166.51,0,0,0-47.64,4,2.66,2.66,0,0,1-2.5-.72,2.69,2.69,0,0,1,0-3.86c25.79-24.48,53.18-48.82,67.21-61.14a29.2,29.2,0,0,1,21.53-7.26l43.48,3.06L201.24,189.8l-27.07,27.07a21.09,21.09,0,0,0,0,29.8l6.25,6.25L173.34,260a20.93,20.93,0,0,0-5.61,19.37l-16.54,16.54a5.59,5.59,0,1,0,7.9,7.9l14.23-14.22,0,0L188.76,305a5.59,5.59,0,0,0,7.9-7.9l-15.42-15.42a9.77,9.77,0,0,1,0-13.81l7.08-7.08,65.89,65.89-7.08,7.08a9.77,9.77,0,0,1-13.81,0l-15.41-15.41a5.59,5.59,0,1,0-7.9,7.9l15.41,15.41,0,0-14.67,14.67a5.59,5.59,0,1,0,7.9,7.9l17-17a20.64,20.64,0,0,0,4.56.52A20.87,20.87,0,0,0,255,341.69l7.08-7.08,6.25,6.25a21.1,21.1,0,0,0,29.8,0l27.07-27.07a5.37,5.37,0,0,0,.71-.88,5.59,5.59,0,0,0-.71-7l-28-28a5.59,5.59,0,0,0-7.9,7.9l24.08,24.08L290.26,333a9.91,9.91,0,0,1-14,0l-94.19-94.19a9.91,9.91,0,0,1,0-14l23.12-23.12L265,261.48a5.59,5.59,0,1,0,7.9-7.9l-59.82-59.83L312,94.87c.61-.62,62.39-61.26,138.85-53.29a25.2,25.2,0,0,1,22.62,22.61c8,76.48-52.67,138.25-53.29,138.86l-81.07,81.07A5.59,5.59,0,1,0,347,292l8.55-8.55L358.61,327a29.3,29.3,0,0,1-7.26,21.53c-12.34,14-36.68,41.44-61.14,67.2a2.67,2.67,0,0,1-1.92.84,2.58,2.58,0,0,1-1.94-.78,2.67,2.67,0,0,1-.72-2.5,168.72,168.72,0,0,0,4.16-44.33,5.59,5.59,0,0,0-11.16.52,157.08,157.08,0,0,1-3.89,41.29,13.87,13.87,0,0,0,13.51,17h.18a13.8,13.8,0,0,0,9.88-4.32c24.59-25.9,49-53.42,61.43-67.52a40.93,40.93,0,0,0,10-29.7L366,273,428.07,211c2.65-2.66,65-66.06,56.49-147.91A36.72,36.72,0,0,0,452,30.47C370.14,22,306.74,84.3,304.08,87L242,149.08a5.7,5.7,0,0,0-.62-.11l-52.47-3.69a40.9,40.9,0,0,0-29.7,10c-14.09,12.38-41.6,36.82-67.52,61.43a13.86,13.86,0,0,0,9.5,23.92Z"/><path d="M364.49,98.29a48,48,0,1,0,38.38,13.86,5.59,5.59,0,1,0-7.9,7.9,36.85,36.85,0,1,1-29.46-10.64,5.58,5.58,0,1,0-1-11.12Z"/><path d="M362.52,120.78a26.28,26.28,0,0,0-16.32,12.43,5.58,5.58,0,1,0,9.71,5.52,15,15,0,0,1,9.35-7.11,5.59,5.59,0,1,0-2.74-10.84Z"/></svg>