<?xml version="1.0" ?><svg width="512px" height="512px" viewBox="0 0 512 512" id="icon" xmlns="http://www.w3.org/2000/svg"><title/><path d="M263,435.08H250.41V357.84A104.21,104.21,0,0,0,248,335.38a5.59,5.59,0,1,0-10.91,2.42,92.65,92.65,0,0,1,2.19,20v77.24H219.7a5.59,5.59,0,1,0,0,11.17h37.74V474H37.06V446.25H157.54a5.59,5.59,0,0,0,0-11.17H31.47a5.58,5.58,0,0,0-5.58,5.58v38.91a5.58,5.58,0,0,0,5.58,5.58H263a5.58,5.58,0,0,0,5.59-5.58V440.66A5.58,5.58,0,0,0,263,435.08Z"/><path d="M190,446.25a5.59,5.59,0,1,0,0-11.17h-1.37a5.59,5.59,0,1,0,0,11.17Z"/><path d="M44.09,357.84v56.93a5.59,5.59,0,1,0,11.17,0V357.84A92.07,92.07,0,0,1,172.4,269.33a5.59,5.59,0,1,0,3-10.75A103.25,103.25,0,0,0,44.09,357.84Z"/><path d="M423.62,175.45a5.59,5.59,0,0,0,7.53-2.41A74.18,74.18,0,0,0,319.87,80.38a5.59,5.59,0,0,0,6.83,8.84,63,63,0,0,1,94.52,78.7A5.59,5.59,0,0,0,423.62,175.45Z"/><path d="M459.19,184a5.59,5.59,0,0,0-1.09,7.83c19.62,26,16.64,32.46,16.6,32.51-.94,1.08-10.78,1.93-38.82-14.26-24.26-14-53.87-35.83-83.36-61.41S297.25,96.88,280,74.83c-20-25.46-20.54-35.33-19.6-36.41S271,36.5,298.56,52.34a5.59,5.59,0,1,0,5.56-9.69c-27.95-16-45-19.83-52.21-11.55S251,56,271.16,81.73c7.18,9.14,15.77,19,25.43,29.16A74.22,74.22,0,0,0,401.11,204a5.45,5.45,0,0,0,1.85-1.68c9.59,6.64,18.79,12.53,27.34,17.46C449,230.58,462.88,236,472.24,236c4.82,0,8.44-1.42,10.9-4.26,6.94-8,1.82-22.8-16.13-46.57A5.58,5.58,0,0,0,459.19,184Zm-135.28,2.65a62.74,62.74,0,0,1-18.7-66.89c12.13,12.26,25.62,24.89,40,37.35,16.28,14.12,32.61,27.1,48.12,38.34A63.22,63.22,0,0,1,323.91,186.68Z"/><path d="M437.37,290c-18.38-7.46-25-34.55-25-34.81a5.59,5.59,0,0,0-11,.47c-3.95,27.25-23.69,33.92-24.49,34.18a5.59,5.59,0,0,0-.89,10.32,42.29,42.29,0,0,1,13.16,10.88,5.58,5.58,0,0,0,8.59-7.14,58.73,58.73,0,0,0-8.18-8.14,50.55,50.55,0,0,0,18.06-21.58c3.74,7.49,9.4,16,17.6,21.79-7.92,7.06-20,20.72-22.2,39.95a5.58,5.58,0,0,0,4.9,6.2l.65,0a5.58,5.58,0,0,0,5.54-4.94c2.7-23.17,24-37.2,24.18-37.33a5.59,5.59,0,0,0-.92-9.88Z"/><path d="M185.56,143.76a5.59,5.59,0,0,0,4.9,6.2c.22,0,.44,0,.66,0a5.59,5.59,0,0,0,5.54-4.94c2.7-23.17,24-37.21,24.17-37.34a5.59,5.59,0,0,0-.91-9.88c-18.38-7.46-25-34.55-25-34.81a5.59,5.59,0,0,0-11,.47C180,90.75,160.23,97.42,159.42,97.68a5.59,5.59,0,0,0-.88,10.32,42.52,42.52,0,0,1,13.16,10.88,5.58,5.58,0,0,0,8.58-7.14,58.67,58.67,0,0,0-8.17-8.14,50.53,50.53,0,0,0,18-21.58c3.74,7.49,9.4,16,17.61,21.79C199.85,110.87,187.8,124.53,185.56,143.76Z"/><path d="M274.8,217.13a5.59,5.59,0,0,0-7.9,7.9l34,34-14.38,14.38-42.55-42.55h0l-9.13-9.13,14.38-14.38,3.51,3.51a5.59,5.59,0,0,0,7.9-7.9l-7.46-7.46a5.59,5.59,0,0,0-7.9,0L223,217.75a5.58,5.58,0,0,0,0,7.9l9.13,9.13-51.47,51.46c-2.62-1.75-5-3.2-7-4.29a5.59,5.59,0,0,0-5.37,9.8c12.87,7.05,39.61,28.47,46.13,48.36A5.59,5.59,0,0,0,225,336.63a54.72,54.72,0,0,0-3.66-8.47l39.74-39.74a5.59,5.59,0,0,0-7.9-7.9l-38,38c-7.26-9.87-16.79-18.79-25.46-25.58L240,242.68l42.55,42.55a5.58,5.58,0,0,0,7.9,0L312.72,263a5.58,5.58,0,0,0,0-7.9Z"/></svg>