<?xml version="1.0" ?><svg width="512px" height="512px" viewBox="0 0 512 512" id="icon" xmlns="http://www.w3.org/2000/svg"><title/><path d="M39.64,342.44a131.78,131.78,0,0,0,27.86,81.3c23.8,30.21,54.93,50.56,90.16,58.9A133,133,0,0,0,182.9,485c3.13,0,6.42-.11,9.82-.37a89.56,89.56,0,0,0,41.21-14l5-3.22a79,79,0,0,1,25.95-10.75,90.39,90.39,0,0,0,43.2-22.94c12.19-11.61,29.32-29.7,41.72-49.89A48.51,48.51,0,0,0,356.49,365l4.07-29a5.58,5.58,0,1,0-11.06-1.56l-4.07,29A37.35,37.35,0,0,1,340.3,378c-11.77,19.17-28.2,36.5-39.9,47.65a79.39,79.39,0,0,1-37.87,20.12A90.06,90.06,0,0,0,232.91,458l-5,3.22a78.21,78.21,0,0,1-36.05,12.27,126.46,126.46,0,0,1-31.74-1.72c-33.09-7.83-61.3-26.31-83.83-54.91a120.55,120.55,0,0,1-25.47-74.39,5.59,5.59,0,0,0-11.17,0Z"/><path d="M48.07,309.53a5.91,5.91,0,0,0,1.25.14,5.6,5.6,0,0,0,5.44-4.35c.16-.72.33-1.44.51-2.15a5.59,5.59,0,0,0-10.86-2.66c-.18.78-.37,1.55-.55,2.33A5.6,5.6,0,0,0,48.07,309.53Z"/><path d="M151.4,155l-30.22,27.89c-17.11,14-35.67,36.74-46.5,53.06a265.89,265.89,0,0,0-18.22,31.46,5.58,5.58,0,1,0,10.06,4.85A256.15,256.15,0,0,1,84,242.08c10.39-15.66,28.15-37.41,44.39-50.69l.26-.22,30.21-27.89c15.78-12.86,29.82-19,42.89-18.85l8.35.12A79.76,79.76,0,0,0,240.27,139a5.59,5.59,0,0,0-4.11-10.39,67,67,0,0,1-25.92,4.75l-8.34-.11h-.72c-15.64,0-31.85,7-49.53,21.49Z"/><path d="M268.44,113.09a5.58,5.58,0,0,0,7.88.56l6.62-5.75a41.34,41.34,0,0,1,29.39-10.13A52.85,52.85,0,0,0,351.78,83L389,46.83a32.77,32.77,0,0,1,38.94-3.08,5.59,5.59,0,0,0,5.89-9.5,43.91,43.91,0,0,0-52.28,4.25l-.22.2L344,74.93a41.67,41.67,0,0,1-31.09,11.68,52.58,52.58,0,0,0-37.3,12.85L269,105.21A5.58,5.58,0,0,0,268.44,113.09Z"/><path d="M449.07,75.58h.26a5.6,5.6,0,0,0,5.32-5.85c-.06-1.21-.16-2.43-.32-3.63a5.59,5.59,0,1,0-11.08,1.44c.12.9.2,1.81.24,2.72A5.58,5.58,0,0,0,449.07,75.58Z"/><path d="M436.33,101.49a5.59,5.59,0,0,0-7.83,1l-70,91.16a38.78,38.78,0,0,0,1.71,49.24A38.41,38.41,0,0,1,362,291.55a5.59,5.59,0,1,0,8.88,6.78,49.61,49.61,0,0,0-2.26-62.82,27.62,27.62,0,0,1-1.22-35l70-91.15A5.58,5.58,0,0,0,436.33,101.49Z"/><path d="M229.31,87.81a5.58,5.58,0,1,0,5.3,9.83,28.82,28.82,0,1,0-40.07-13.81,5.59,5.59,0,1,0,10.23-4.49,17.66,17.66,0,1,1,24.54,8.47Z"/><path d="M420.83,178.92c-4.9,8.48-7.47,17.73-7.25,26,.24,9.3,3.91,16.46,10.32,20.15a18.83,18.83,0,0,0,9.55,2.51,27.47,27.47,0,0,0,13.06-3.66c7.29-4,14-10.81,18.9-19.3a54.22,54.22,0,0,0,6.91-19.71,5.59,5.59,0,0,0-11.08-1.45,42.88,42.88,0,0,1-5.51,15.58c-3.82,6.62-9.13,12.12-14.55,15.07-2.68,1.45-7.76,3.56-11.7,1.29s-4.65-7.73-4.73-10.77c-.17-6.18,1.93-13.52,5.76-20.15,7.4-12.83,17.93-18.41,24.07-17.18a5.58,5.58,0,1,0,2.23-10.94C444.7,153.89,429.91,163.18,420.83,178.92Z"/><path d="M238.4,245.35a59.54,59.54,0,0,1,14.46,9.9,5.59,5.59,0,1,0,7.69-8.11,71,71,0,0,0-17.22-11.82,5.59,5.59,0,0,0-4.93,10Z"/><path d="M138.88,339l-1.15-8.84a5.59,5.59,0,1,0-11.08,1.44l1.15,8.84a5.59,5.59,0,0,0,5.53,4.87,6,6,0,0,0,.73-.05A5.59,5.59,0,0,0,138.88,339Z"/><path d="M169.5,218h-9.72a33,33,0,0,0-20.87,7.46l-12.13,10a32.89,32.89,0,0,0-12,24.36L114,282.08a28.11,28.11,0,0,1-6,16.52l-.35.44a39.35,39.35,0,0,0-8.3,27.34c.73,9.51,2,19.55,3.66,29.83a39.73,39.73,0,0,0,20.37,28.45l3.68,2a5.48,5.48,0,0,0,2.62.66,5.59,5.59,0,0,0,2.63-10.52l-3.68-2a28.54,28.54,0,0,1-14.6-20.41c-1.64-10-2.83-19.67-3.54-28.87a28.16,28.16,0,0,1,5.95-19.58l.35-.44a39.22,39.22,0,0,0,8.39-23.05l.73-22.32A21.7,21.7,0,0,1,133.86,244l12.14-10a21.77,21.77,0,0,1,13.78-4.93h9.72a5.59,5.59,0,1,0,0-11.17Z"/><path d="M160.42,414.12l24.65,4a33.51,33.51,0,0,0,28.33-8.49l2.4-2.21a14.82,14.82,0,0,1,12-3.83l11.73,1.5A28.15,28.15,0,0,0,258.14,401L273,391.57a5.59,5.59,0,0,0-6-9.44l-14.86,9.43A17,17,0,0,1,241,394.05l-11.73-1.51a26,26,0,0,0-21,6.71l-2.39,2.21a22.44,22.44,0,0,1-19,5.68l-24.65-4.05a22.66,22.66,0,0,1-15.11-9.74,5.58,5.58,0,1,0-9.29,6.2A33.82,33.82,0,0,0,160.42,414.12Z"/><path d="M295.94,334.38l-12.53,12.14a26.13,26.13,0,0,0-7.76,15.68,5.58,5.58,0,0,0,4.9,6.2,4.87,4.87,0,0,0,.66,0,5.59,5.59,0,0,0,5.54-4.93,14.94,14.94,0,0,1,4.43-9l12.53-12.14a26.18,26.18,0,0,0,7.94-18.73V289a26.26,26.26,0,0,0-12.41-22.21,15,15,0,0,1-7.1-12.7,28,28,0,0,0-5.5-16.63,5.59,5.59,0,0,0-9,6.67,16.79,16.79,0,0,1,3.3,10,26.25,26.25,0,0,0,12.41,22.22A15,15,0,0,1,300.47,289v34.64A15,15,0,0,1,295.94,334.38Z"/><path d="M215.92,209.37l-14.59,7.1A14.92,14.92,0,0,1,194.8,218a5.59,5.59,0,0,0,0,11.17,26.21,26.21,0,0,0,11.41-2.63l14.6-7.1a23.24,23.24,0,0,1,16.6-1.47,86,86,0,0,1,26.35,12.59,5.59,5.59,0,1,0,6.57-9,97.29,97.29,0,0,0-29.83-14.29A34.43,34.43,0,0,0,215.92,209.37Z"/><path d="M167.52,265.36a11.52,11.52,0,0,1,6-2.8,10.6,10.6,0,0,1,8.6,2.43,5.59,5.59,0,0,0,7.27-8.49,22,22,0,0,0-17.54-5,22.64,22.64,0,0,0-11.63,5.43c-5.49,4.78-7.84,11-6.63,17.47s6,12.5,11.53,14.49a34.65,34.65,0,0,0,11.55,2c6.25,0,12.75-1.79,16.7-7a5.59,5.59,0,0,0-8.94-6.71c-2.71,3.61-11.4,2.76-15.49,1.28a8.86,8.86,0,0,1-4.37-6C164.06,269.82,165,267.53,167.52,265.36Z"/><path d="M211.33,299.28c.13,6.44,2.72,20.75,11.56,28.74A20.65,20.65,0,0,0,237,333.54c.59,0,1.17,0,1.77-.07l.57-.05a30.91,30.91,0,0,0,3.49-.54A5.59,5.59,0,0,0,240.45,322a19,19,0,0,1-2.16.33l-.39,0a9.44,9.44,0,0,1-7.52-2.59c-5.24-4.74-7.76-15-7.88-20.7-.06-2.89,2.4-8.48,7.18-11.44,4-2.49,8.65-2.39,13.74.28a19.6,19.6,0,0,1,8,7.68,18.2,18.2,0,0,1,2.47,8.81,5.53,5.53,0,0,0,5.69,5.47,5.59,5.59,0,0,0,5.48-5.69A29.76,29.76,0,0,0,261.16,290a30.57,30.57,0,0,0-12.54-12c-8.59-4.52-17.41-4.49-24.82.1C215.43,283.28,211.19,292.67,211.33,299.28Z"/><path d="M163.91,359.27c0,8.23,6.75,15.56,17.21,18.67a5.48,5.48,0,0,0,1.59.24,5.59,5.59,0,0,0,1.6-10.94c-5.43-1.62-9.22-4.9-9.22-8,0-4.28,7.34-9.07,17.16-9.07s17.16,4.79,17.16,9.07a6.13,6.13,0,0,1-2.15,4.16,5.58,5.58,0,1,0,7.71,8.08,16.77,16.77,0,0,0,5.61-12.24c0-11.35-12.44-20.25-28.33-20.25S163.91,347.92,163.91,359.27Z"/><path d="M281.5,37.39l1-1.18A5.59,5.59,0,0,0,273.94,29l-1,1.19a5.59,5.59,0,1,0,8.56,7.18Z"/><path d="M415.37,265l-1,1.19a5.59,5.59,0,1,0,8.56,7.18l1-1.18a5.59,5.59,0,0,0-8.56-7.19Z"/></svg>