<?xml version="1.0" ?><svg width="512px" height="512px" viewBox="0 0 512 512" id="icon" xmlns="http://www.w3.org/2000/svg"><title/><path d="M347,141.71a5.58,5.58,0,0,0-4,6.8L380.34,294a5.57,5.57,0,0,0,5.4,4.19,5.64,5.64,0,0,0,1.4-.17,5.58,5.58,0,0,0,4-6.8L353.8,145.73A5.59,5.59,0,0,0,347,141.71Z"/><path d="M393.86,329.78a5.57,5.57,0,0,0,5.41-7l-.19-.77a5.59,5.59,0,1,0-10.83,2.77l.2.77A5.6,5.6,0,0,0,393.86,329.78Z"/><path d="M428.23,480.48a5.57,5.57,0,0,0,5.4,4.19,5.64,5.64,0,0,0,1.4-.17,5.59,5.59,0,0,0,4-6.8l-30.82-120a5.59,5.59,0,0,0-10.82,2.78Z"/><path d="M110.57,353.68a5.58,5.58,0,0,0-6.8,4L73,477.7a5.59,5.59,0,0,0,4,6.8,5.64,5.64,0,0,0,1.4.17,5.57,5.57,0,0,0,5.4-4.19l30.82-120A5.58,5.58,0,0,0,110.57,353.68Z"/><path d="M118.07,330.06a5.6,5.6,0,0,0,5.41-4.2l.25-1a5.59,5.59,0,0,0-10.82-2.78l-.25,1a5.6,5.6,0,0,0,5.41,7Z"/><path d="M124.86,298a5.64,5.64,0,0,0,1.4.17,5.57,5.57,0,0,0,5.4-4.19L169,148.52a5.59,5.59,0,1,0-10.82-2.78L120.84,291.21A5.58,5.58,0,0,0,124.86,298Z"/><path d="M382.69,484.67a5.58,5.58,0,0,0,5.59-5.58V435.43c0-9.14-3-16.55-9-22-11.75-10.68-30.84-9.62-33.56-9.42a73.62,73.62,0,0,1-32.4-7.47,47.89,47.89,0,0,1-26.16-38A5.58,5.58,0,1,0,276,359.66a59.14,59.14,0,0,0,32.37,46.9,84.83,84.83,0,0,0,37.53,8.61,4.24,4.24,0,0,0,.51,0c.17,0,16.61-1.4,25.33,6.56,3.61,3.3,5.37,7.79,5.37,13.73v43.66A5.58,5.58,0,0,0,382.69,484.67Z"/><path d="M168.55,462.85v16.24a5.59,5.59,0,0,0,11.18,0V462.85a5.59,5.59,0,0,0-11.18,0Z"/><path d="M331.67,462.85v16.24a5.59,5.59,0,0,0,11.17,0V462.85a5.59,5.59,0,1,0-11.17,0Z"/><path d="M330.93,248.2a141,141,0,0,0-9.11-46.34C309.51,170.56,286.64,154,255.7,154c-14.31,0-27,3.54-37.63,10.52a5.59,5.59,0,0,0,6.12,9.35c8.81-5.77,19.41-8.69,31.51-8.69,26.24,0,45,13.62,55.61,40.5,8.3,20.92,8.45,42.31,8.45,42.52,0,36.58-25.94,66.14-41.4,80.51a33.49,33.49,0,0,1-45.32,0c-15.46-14.37-41.4-43.93-41.4-80.51,0-.22.11-21.7,8.55-42.8a5.58,5.58,0,0,0-10.37-4.15c-9.23,23.08-9.35,46-9.35,47,0,40.14,27.23,72,44.11,87.89,0,.1,0,.2,0,.3v17.05c0,18.33-10.37,35.23-26.42,43.07a73.62,73.62,0,0,1-32.4,7.47c-2.72-.21-21.81-1.27-33.56,9.42-6,5.47-9,12.88-9,22v43.66a5.59,5.59,0,0,0,11.17,0V435.43c0-5.94,1.76-10.43,5.37-13.73,8.71-8,25.16-6.58,25.31-6.56a4.71,4.71,0,0,0,.53,0A84.86,84.86,0,0,0,203,406.56c19.86-9.7,32.69-30.54,32.69-53.11V344A44.79,44.79,0,0,0,286,336.9C302.76,321.3,330.93,289,330.93,248.2Z"/><path d="M211,177.33a5.58,5.58,0,0,0-7.86.81c-.67.81-1.31,1.64-1.94,2.48a5.59,5.59,0,0,0,9,6.69c.53-.71,1.08-1.42,1.65-2.12A5.59,5.59,0,0,0,211,177.33Z"/><path d="M233.75,262.25a9.38,9.38,0,0,1-9.94-.78,28.57,28.57,0,0,1-8.29-9.28,49.05,49.05,0,0,1-4-14.17,5.58,5.58,0,1,0-11.11,1.14,59.89,59.89,0,0,0,4.95,17.72,38.34,38.34,0,0,0,11.83,13.6,20.58,20.58,0,0,0,12.18,4,20.9,20.9,0,0,0,20.86-20.87v-4a40.7,40.7,0,0,0-8-24.56c-6.2-8.15-14.55-12.3-24.11-12a18.13,18.13,0,0,0-5.81,1.15,5.59,5.59,0,0,0,3.93,10.46,6.79,6.79,0,0,1,2.21-.44c6-.15,10.85,2.32,14.89,7.63a29.44,29.44,0,0,1,5.76,17.79v4A9.54,9.54,0,0,1,233.75,262.25Z"/><path d="M273.87,239.89a5.58,5.58,0,1,0-10.6-3.52,41.92,41.92,0,0,0-2.12,13.28v4A20.89,20.89,0,0,0,282,274.48a20.57,20.57,0,0,0,12.17-4,38.49,38.49,0,0,0,11.9-13.72c4.84-11.15,6.26-21.19,4.23-29.87a18,18,0,0,0-17-13.83,27.58,27.58,0,0,0-15.53,4.08,5.59,5.59,0,0,0,5.88,9.5,16.38,16.38,0,0,1,9.32-2.41,6.91,6.91,0,0,1,6.46,5.21c1,4.31,1.21,11.74-3.55,22.75a28.81,28.81,0,0,1-8.3,9.28,9.34,9.34,0,0,1-9.93.78,9.52,9.52,0,0,1-5.33-8.64v-4A30.87,30.87,0,0,1,273.87,239.89Z"/><path d="M264.7,384.12l-9,20a4.54,4.54,0,0,1-6.83,1.8l-3.67-2.7a5.59,5.59,0,1,0-6.63,9l3.67,2.71a15.71,15.71,0,0,0,23.66-6.24l9-20a5.59,5.59,0,1,0-10.2-4.56Z"/><path d="M148.09,95.51c6.48-2.35,13.85-4.6,21.91-6.69A5.58,5.58,0,1,0,167.2,78c-8.4,2.17-16.12,4.53-22.92,7a18.81,18.81,0,0,0,.51,35.56c19.07,6.3,53.78,13.81,110.91,13.82h.16c57.12,0,91.84-7.52,110.9-13.82A18.81,18.81,0,0,0,367.28,85c-6.35-2.3-13.49-4.51-21.23-6.56a5.59,5.59,0,1,0-2.86,10.8c7.42,2,14.24,4.07,20.27,6.26a7.64,7.64,0,0,1-.2,14.46c-18.29,6-51.77,13.24-107.41,13.25v5.59l-.16-5.59c-55.64,0-89.12-7.22-107.4-13.25a7.64,7.64,0,0,1-.21-14.46Z"/><path d="M311.39,81c-7.45,3.19-17.27,5.56-29.2,7a5.59,5.59,0,0,0,1.37,11.09c13-1.61,23.82-4.25,32.24-7.87a17.76,17.76,0,0,0,10.12-11.61,18,18,0,0,0-2.71-15.39c-9.86-13.77-31.72-36.88-67.35-36.95h-.24c-35.59.1-57.42,23.19-67.27,37a18,18,0,0,0-2.72,15.39,17.76,17.76,0,0,0,10.12,11.61c8.7,3.74,20,6.44,33.51,8a4.87,4.87,0,0,0,.66,0,5.58,5.58,0,0,0,.64-11.13c-12.47-1.47-22.7-3.88-30.39-7.19a6.59,6.59,0,0,1-3.78-4.35,6.94,6.94,0,0,1,1-5.89c8.61-12,27.64-32.21,58.16-32.28h.25c30.65.07,49.67,20.26,58.28,32.28a6.87,6.87,0,0,1,1,5.89A6.57,6.57,0,0,1,311.39,81Z"/><path d="M255.56,100.79h.61a5.59,5.59,0,0,0,0-11.17h-.33a1,1,0,0,0-.24,0h-.2a5.59,5.59,0,1,0,.12,11.17Z"/><path d="M245.15,47.76l-.82.12A5.58,5.58,0,0,0,245.2,59a5.3,5.3,0,0,0,.88-.07l.62-.09a5.58,5.58,0,1,0-1.55-11.06Z"/><path d="M225.71,56.2a42.48,42.48,0,0,0-9.45,6.95,5.59,5.59,0,0,0,8.06,7.74,32.65,32.65,0,0,1,6.8-4.91,5.59,5.59,0,1,0-5.41-9.78Z"/></svg>